<svg width="401" height="83" viewBox="0 0 401 83" fill="none" xmlns="http://www.w3.org/2000/svg">
<path d="M10.46 38.14C11.7267 33.8967 12.74 30.635 13.5 28.355C14.3233 26.0117 15.115 23.9217 15.875 22.085C16.635 20.2483 17.49 18.475 18.44 16.765C19.4533 15.055 20.53 13.5033 21.67 12.11C22.8733 10.6533 24.14 9.51333 25.47 8.69C26.8 7.86666 28.1933 7.455 29.65 7.455C31.1067 7.455 32.6267 8.025 34.21 9.165C36.7433 15.4983 38.295 19.7417 38.865 21.895C39.625 25.0617 40.3217 29.5267 40.955 35.29C41.525 33.8333 42.1583 32.3133 42.855 30.73C43.615 29.0833 44.3433 27.4367 45.04 25.79C47.0033 21.61 48.2383 18.4433 48.745 16.29C50.1383 11.8567 53.02 8.53166 57.39 6.315C61.19 4.415 64.7367 3.81333 68.03 4.51C69.36 4.76333 70.2783 5.30166 70.785 6.125C71.355 6.94833 71.355 7.80333 70.785 8.69C70.2783 9.57667 70.0883 10.4317 70.215 11.255C70.405 12.015 70.5633 12.9333 70.69 14.01C70.88 16.9233 70.3733 19.52 69.17 21.8C67.9667 24.0167 66.7317 26.8033 65.465 30.16C64.1983 33.4533 62.9 36.9683 61.57 40.705C60.3033 44.4417 59.005 48.2417 57.675 52.105C56.345 55.9683 55.0467 59.4833 53.78 62.65C50.9933 69.9333 48.7133 73.955 46.94 74.715C44.5333 76.1717 42.76 77.0267 41.62 77.28C40.1633 77.5333 38.105 77.5333 35.445 77.28C33.7983 77.1533 32.3733 75.0317 31.17 70.915C30.4733 68.6983 29.84 65.6267 29.27 61.7C28.2567 54.86 27.56 51.0917 27.18 50.395C24.6467 58.6283 22.8417 63.8217 21.765 65.975C20.7517 68.1283 19.96 69.5533 19.39 70.25C18.8833 70.9467 18.25 71.865 17.49 73.005C16.6667 75.285 14.7033 76.9633 11.6 78.04C8.94 79.0533 6.53333 79.2117 4.38 78.515C2.03667 77.755 1.34 76.2983 2.29 74.145C2.98667 66.545 5.71 54.5433 10.46 38.14ZM85.3089 63.03C88.9822 63.41 91.7055 63.6 93.4789 63.6C95.3155 63.6 98.0705 63.3467 101.744 62.84C102.884 63.22 103.549 63.695 103.739 64.265C103.929 64.835 103.992 65.4367 103.929 66.07C103.866 66.64 103.897 67.21 104.024 67.78C104.151 68.35 104.752 68.825 105.829 69.205C106.399 69.395 106.557 69.965 106.304 70.915C106.114 71.8017 105.607 72.7833 104.784 73.86C102.694 76.5833 100.224 78.4833 97.3739 79.56C92.8139 80.7 89.2355 81.365 86.6389 81.555C82.3322 81.8717 77.6455 81.7133 72.5789 81.08C67.0055 80.0667 64.3139 77.755 64.5039 74.145C64.5039 60.845 67.4172 47.4817 73.2439 34.055C75.1439 29.685 77.2972 25.0933 79.7039 20.28C80.2105 19.2667 80.4955 18.1267 80.5589 16.86C80.6855 15.5933 80.7805 14.3583 80.8439 13.155C80.9072 11.9517 81.0972 10.875 81.4139 9.92499C81.7305 8.975 82.3955 8.31 83.4089 7.93C96.5822 2.67333 107.001 0.646663 114.664 1.85C117.324 1.91333 119.066 2.83166 119.889 4.60499C120.776 6.315 120.871 8.24666 120.174 10.4C119.541 12.5533 118.242 14.58 116.279 16.48C114.379 18.38 111.972 19.5517 109.059 19.995C105.322 21.0717 103.042 21.8 102.219 22.18C100.636 22.94 99.4955 23.9533 98.7989 25.22C97.9122 26.6133 97.0889 27.9433 96.3289 29.21C95.5689 30.4767 95.0305 31.8383 94.7139 33.295L94.3339 35.385C95.5372 35.955 96.9939 36.145 98.7039 35.955C100.477 35.7017 102.092 35.48 103.549 35.29C105.069 35.0367 106.272 35.005 107.159 35.195C108.109 35.385 108.299 36.335 107.729 38.045C107.222 39.6917 106.241 41.56 104.784 43.65C103.391 45.74 101.396 47.26 98.7989 48.21C97.1522 48.5267 96.0122 48.78 95.3789 48.97C94.8089 49.0967 94.3655 49.1917 94.0489 49.255C93.6055 49.3183 92.3389 49.4133 90.2489 49.54C87.2722 54.6067 85.4672 58.5333 84.8339 61.32C84.5805 62.46 84.7389 63.03 85.3089 63.03ZM132.943 12.11C136.933 7.55 141.367 4.7 146.243 3.56C149.6 2.73666 152.767 2.86333 155.743 3.94C158.087 1.47 161.127 0.583329 164.863 1.28C168.283 1.91333 171.197 3.845 173.603 7.075C173.73 7.51833 173.983 8.18333 174.363 9.07C174.807 9.95667 175.218 10.9383 175.598 12.015C178.385 18.475 178.607 26.9617 176.263 37.475C173.35 50.5217 168.188 61.5733 160.778 70.63C158.498 73.4167 155.933 75.7283 153.083 77.565C148.523 81.0483 143.077 82.6 136.743 82.22C132.817 82.03 129.523 81.0483 126.863 79.275C116.287 74.0183 112.835 63.0617 116.508 46.405C119.548 32.725 125.027 21.2933 132.943 12.11ZM134.083 62.555L133.988 63.125L134.178 64.17C134.558 66.1333 135.192 67.6533 136.078 68.73C136.965 69.7433 137.693 70.3767 138.263 70.63C138.897 70.1233 139.53 69.6483 140.163 69.205C140.797 68.7617 141.367 68.2233 141.873 67.59C146.18 62.27 149.537 55.3033 151.943 46.69C154.35 38.0767 155.237 30.0967 154.603 22.75C152.133 25.9167 149.537 29.5583 146.813 33.675C144.09 37.7917 141.937 41.3067 140.353 44.22C136.743 50.9967 134.653 57.1083 134.083 62.555ZM211.667 5.65C212.3 7.36 212.649 8.5 212.712 9.07C212.839 10.2733 212.395 11.2867 211.382 12.11C211.382 12.1733 211.319 12.2683 211.192 12.395C211.762 15.3717 211.889 18.1583 211.572 20.755C211.255 23.3517 210.844 25.8533 210.337 28.26C213.757 22.4333 216.48 18.1583 218.507 15.435C222.687 9.79833 226.582 5.77667 230.192 3.37C231.395 2.67333 232.852 2.16666 234.562 1.85C236.335 1.47 238.014 1.40666 239.597 1.66C241.18 1.91333 242.479 2.54667 243.492 3.56C244.569 4.57333 245.044 6.09333 244.917 8.11999C243.144 20.47 241.244 31.9967 239.217 42.7C237.19 53.34 234.562 63.505 231.332 73.195V73.385H231.237C230.477 75.665 228.577 77.28 225.537 78.23C222.56 79.1167 219.9 79.18 217.557 78.42C214.707 77.5967 213.409 76.0767 213.662 73.86L213.757 71.675V71.485C214.01 69.965 214.137 68.9517 214.137 68.445C214.2 67.875 214.264 67.4633 214.327 67.21C214.454 65.5633 214.707 64.0433 215.087 62.65C215.53 61.1933 215.847 60.0217 216.037 59.135C216.227 58.2483 216.417 57.425 216.607 56.665C216.797 55.8417 216.924 55.2083 216.987 54.765C214.58 58.0583 212.87 60.0533 211.857 60.75C209.324 62.5233 206.379 63.3467 203.022 63.22C200.932 63.0933 199.729 62.6183 199.412 61.795C198.779 60.0217 198.335 58.9767 198.082 58.66C197.702 58.1533 197.385 57.2983 197.132 56.095C195.485 63.3783 193.87 68.54 192.287 71.58C191.654 72.7833 191.02 73.86 190.387 74.81C189.5 76.9 187.474 78.3567 184.307 79.18C181.33 80.0033 178.48 79.94 175.757 78.99C172.97 78.1033 171.64 76.52 171.767 74.24C171.894 71.96 172.369 69.11 173.192 65.69C173.952 62.2067 174.87 58.5333 175.947 54.67C179.177 42.4467 181.457 34.4983 182.787 30.825C184.18 27.1517 185.352 24.27 186.302 22.18C188.582 17.3033 190.609 13.7567 192.382 11.54C194.345 7.55 197.607 5.14333 202.167 4.32C205.777 3.62333 208.944 4.06666 211.667 5.65ZM261.486 63.03C265.159 63.41 267.882 63.6 269.656 63.6C271.492 63.6 274.247 63.3467 277.921 62.84C279.061 63.22 279.726 63.695 279.916 64.265C280.106 64.835 280.169 65.4367 280.106 66.07C280.042 66.64 280.074 67.21 280.201 67.78C280.327 68.35 280.929 68.825 282.006 69.205C282.576 69.395 282.734 69.965 282.481 70.915C282.291 71.8017 281.784 72.7833 280.961 73.86C278.871 76.5833 276.401 78.4833 273.551 79.56C268.991 80.7 265.412 81.365 262.816 81.555C258.509 81.8717 253.822 81.7133 248.756 81.08C243.182 80.0667 240.491 77.755 240.681 74.145C240.681 60.845 243.594 47.4817 249.421 34.055C251.321 29.685 253.474 25.0933 255.881 20.28C256.387 19.2667 256.672 18.1267 256.736 16.86C256.862 15.5933 256.957 14.3583 257.021 13.155C257.084 11.9517 257.274 10.875 257.591 9.92499C257.907 8.975 258.572 8.31 259.586 7.93C272.759 2.67333 283.177 0.646663 290.841 1.85C293.501 1.91333 295.242 2.83166 296.066 4.60499C296.952 6.315 297.047 8.24666 296.351 10.4C295.717 12.5533 294.419 14.58 292.456 16.48C290.556 18.38 288.149 19.5517 285.236 19.995C281.499 21.0717 279.219 21.8 278.396 22.18C276.812 22.94 275.672 23.9533 274.976 25.22C274.089 26.6133 273.266 27.9433 272.506 29.21C271.746 30.4767 271.207 31.8383 270.891 33.295L270.511 35.385C271.714 35.955 273.171 36.145 274.881 35.955C276.654 35.7017 278.269 35.48 279.726 35.29C281.246 35.0367 282.449 35.005 283.336 35.195C284.286 35.385 284.476 36.335 283.906 38.045C283.399 39.6917 282.417 41.56 280.961 43.65C279.567 45.74 277.572 47.26 274.976 48.21C273.329 48.5267 272.189 48.78 271.556 48.97C270.986 49.0967 270.542 49.1917 270.226 49.255C269.782 49.3183 268.516 49.4133 266.426 49.54C263.449 54.6067 261.644 58.5333 261.011 61.32C260.757 62.46 260.916 63.03 261.486 63.03ZM332.49 27.69C332.49 25.79 331.825 24.84 330.495 24.84C329.988 24.84 329.387 24.9667 328.69 25.22C327.993 25.4733 327.328 25.695 326.695 25.885C324.352 27.1517 322.515 28.545 321.185 30.065C319.918 31.5217 318.62 33.1683 317.29 35.005C315.96 36.8417 314.82 38.805 313.87 40.895C312.92 42.985 312.192 44.9483 311.685 46.785C309.848 53.5617 310.545 58.1217 313.775 60.465C315.105 61.415 316.498 61.89 317.955 61.89C319.475 61.8267 320.678 61.51 321.565 60.94C322.515 60.37 323.433 59.8317 324.32 59.325C325.207 58.8183 326.22 58.47 327.36 58.28C328.563 58.0267 330.02 58.185 331.73 58.755C333.503 59.2617 334.453 59.9583 334.58 60.845C334.707 61.7317 334.707 62.65 334.58 63.6C334.453 64.55 334.422 65.405 334.485 66.165C334.612 66.925 335.308 67.4 336.575 67.59C337.778 69.11 337.018 70.9467 334.295 73.1C333.598 73.67 332.933 74.2083 332.3 74.715C326.853 78.1983 321.058 80.13 314.915 80.51C311.052 80.7633 306.935 80.0667 302.565 78.42C296.042 75.95 292.368 70.4083 291.545 61.795C290.468 53.815 291.482 45.55 294.585 37C297.182 29.78 301.108 23.0983 306.365 16.955C311.115 11.3183 315.802 7.645 320.425 5.93499C325.935 3.085 331.888 1.97666 338.285 2.61C345.062 3.49666 349.495 6.37833 351.585 11.255C353.675 16.1317 353.327 21.99 350.54 28.83C349.59 31.2367 347.785 33.1367 345.125 34.53C342.845 35.7967 340.375 36.43 337.715 36.43C335.055 36.43 333.345 35.6067 332.585 33.96C331.825 32.25 331.793 30.16 332.49 27.69ZM396.828 10.59C398.981 11.73 400.343 13.4083 400.913 15.625C399.646 22.7183 398.506 29.78 397.493 36.81C396.48 43.7767 395.498 49.635 394.548 54.385C393.598 59.0717 392.933 62.5867 392.553 64.93C392.236 67.2733 391.856 69.6167 391.413 71.96L390.843 73.955C390.716 74.6517 390.59 75.285 390.463 75.855C390.336 76.4883 390.21 77.1533 390.083 77.85C388.31 79.8767 385.903 80.89 382.863 80.89C379.633 80.89 377.068 80.0667 375.168 78.42C374.028 77.5333 373.838 75.665 374.598 72.815C374.915 71.675 375.105 70.2183 375.168 68.445C375.295 66.6083 375.421 65.0883 375.548 63.885V63.695C373.648 64.3917 371.938 65.31 370.418 66.45C368.898 67.5267 367.948 68.2233 367.568 68.54C367.188 68.7933 366.681 69.015 366.048 69.205C365.415 69.3317 364.845 69.4267 364.338 69.49C363.135 69.5533 362.311 69.7433 361.868 70.06C358.195 76.6467 354.901 80.32 351.988 81.08C350.151 81.65 348.315 81.7767 346.478 81.46C344.641 81.2067 343.185 80.13 342.108 78.23C340.081 76.33 340.588 71.1367 343.628 62.65C345.275 58.1533 347.618 52.77 350.658 46.5C353.761 40.1667 356.738 34.6567 359.588 29.97C365.731 19.9 372.476 11.4133 379.823 4.51C381.026 4.00333 382.325 3.43333 383.718 2.8C385.111 2.10333 386.473 1.72333 387.803 1.66C389.196 1.59666 390.621 1.755 392.078 2.135C393.535 2.515 394.77 3.085 395.783 3.845C398.126 5.61833 398.475 7.86666 396.828 10.59ZM376.498 35.575C375.168 39.375 373.838 42.89 372.508 46.12C371.178 49.2867 370.038 52.0733 369.088 54.48L376.593 54.195C377.1 50.1417 377.67 46.12 378.303 42.13C378.936 38.14 379.538 34.15 380.108 30.16L376.498 35.575ZM373.933 54.575C374.82 54.575 375.706 54.5117 376.593 54.385V54.29C375.77 54.3533 375.01 54.4167 374.313 54.48C373.616 54.5433 373.49 54.575 373.933 54.575Z" fill="white"/>
</svg>
